{"title":"Monster University 2013 720p HDRip x264 AC3-SmY mkv","uid":8871691,"size":2288642774,"categoryP":"video","categoryS":"hd___movies","magnet":"?xt=urn:btih:1a8785b0c43c5df0d098899a53e289e708b82dda&amp;dn=Monster+University+2013+720p+HDRip+x264+AC3-SmY+mkv&amp;tr=udp%3A%2F%2Ftracker.openbittorrent.com%3A80&amp;tr=udp%3A%2F%2Fopen.demonii.com%3A1337&amp;tr=udp%3A%2F%2Ftracker.coppersurfer.tk%3A6969&amp;tr=udp%3A%2F%2Fexodus.desync.com%3A6969","seeders":5,"leechers":2,"uploader":"TeX","files":1,"time":1378082517,"description":"[img]http://s15.postimg.org/40fkby7h7/673341321.jpg[/img]\n\nInformation\n\nFile: Monster University.2013.720p.HDRip.x264.AC3-SmY.mkv\nSize: 2288642774 bytes (2.13 GiB), duration: 01:34:53, avg.bitrate: 3216 kb/s\nAudio: ac3, 48000 Hz, stereo\nVideo: h264, yuv420p, 1280?684, 25.00 fps(r) (eng)\n\nVideo Description:Format                                   : Matroska\nFormat version                           : Version 4 / Version 2\nFile size                                : 2.13 GiB\nDuration                                 : 1h 34mn\nOverall bit rate                         : 3 216 Kbps\nEncoded date                             : UTC 2010-02-22 21:41:31\nWriting application                      : mkvmerge v5.9.0 ('On The Loose') built on Dec  9 2012 15:37:01\nWriting library                          : libebml v1.3.0 + libmatroska v1.4.0\n\nVideo\nID                                       : 1\nFormat                                   : AVC\nFormat/Info                              : Advanced Video Codec\nFormat profile                           : &lt;a class=&quot;__cf_email__&quot; href=&quot;/cdn-cgi/l/email-protection&quot; data-cfemail=&quot;80c8e9e7e8c0ccb3aeb1&quot;&gt;[email&amp;#160;protected]&lt;/a&gt;&lt;script cf-hash='f9e31' type=&quot;text/javascript&quot;&gt;\n/* &lt;![CDATA[ */!function(){try{var t=&quot;currentScript&quot;in document?document.currentScript:function(){for(var t=document.getElementsByTagName(&quot;script&quot;),e=t.length;e--;)if(t[e].getAttribute(&quot;cf-hash&quot;))return t[e]}();if(t&amp;&amp;t.previousSibling){var e,r,n,i,c=t.previousSibling,a=c.getAttribute(&quot;data-cfemail&quot;);if(a){for(e=&quot;&quot;,r=parseInt(a.substr(0,2),16),n=2;a.length-n;n+=2)i=parseInt(a.substr(n,2),16)^r,e+=String.fromCharCode(i);e=document.createTextNode(e),c.parentNode.replaceChild(e,c)}}}catch(u){}}();/* ]]&gt; */&lt;/script&gt;\nFormat settings, CABAC                   : Yes\nFormat settings, ReFrames                : 4 frames\nMuxing mode                              : Header stripping\nCodec ID                                 : V_MPEG4/ISO/AVC\nDuration                                 : 1h 34mn\nBit rate                                 : 3 000 Kbps\nWidth                                    : 1 280 pixels\nHeight                                   : 684 pixels\nDisplay aspect ratio                     : 1.85:1\nFrame rate mode                          : Constant\nFrame rate                               : 25.000 fps\nColor space                              : YUV\nChroma subsampling                       : 4:2:0\nBit depth                                : 8 bits\nScan type                                : Progressive\nBits/(Pixel*Frame)                       : 0.137\nStream size                              : 1.94 GiB (91%)\nWriting library                          : x264 core \nLanguage                                 : English\nDefault                                  : Yes\nForced                                   : No\n\nAudio\nID                                       : 2\nFormat                                   : AC-3\nFormat/Info                              : Audio Coding 3\nMode extension                           : CM (complete main)\nFormat settings, Endianness              : Big\nMuxing mode                              : Header stripping\nCodec ID                                 : A_AC3\nDuration                                 : 1h 34mn\nBit rate mode                            : Constant\nBit rate                                 : 224 Kbps\nChannel(s)                               : 2 channels\nChannel positions                        : Front: L R\nSampling rate                            : 48.0 KHz\nBit depth                                : 16 bits\nCompression mode                         : Lossy\nStream size                              : 152 MiB (7%)\nDefault                                  : Yes\nForced                                   : No\n\nPlease note, it has hardcoded chinese subtitles on it.\n\nScreenShots:\n\n\n[img]http://lookpic.com/O/i2/1512/LDFBgWM1.jpeg[/img]\n[img]http://s22.postimg.org/67zf4linl/image.jpg[/img]\n[img]http://s22.postimg.org/h2lgk9r5d/image.jpg[/img]","torrent":{"xt":"urn:btih:1a8785b0c43c5df0d098899a53e289e708b82dda","amp;dn":"Monster+University+2013+720p+HDRip+x264+AC3-SmY+mkv","amp;tr":["udp%3A%2F%2Ftracker.openbittorrent.com%3A80","udp%3A%2F%2Fopen.demonii.com%3A1337","udp%3A%2F%2Ftracker.coppersurfer.tk%3A6969","udp%3A%2F%2Fexodus.desync.com%3A6969"],"infoHash":"1a8785b0c43c5df0d098899a53e289e708b82dda","infoHashBuffer":{"type":"Buffer","data":[26,135,133,176,196,60,93,240,208,152,137,154,83,226,137,231,8,184,45,218]},"announce":[],"urlList":[]}}